PathFileType	4	(X/Y/Z)	pose2sim_0-693.trc
DataRate	CameraRate	NumFrames	NumMarkers	Units	OrigDataRate	OrigDataStartFrame	OrigNumFrames
50	50	5	22	m	50	0	694
Frame#	Time	Hip			RHip			RKnee			RAnkle			RBigToe			RSmallToe			RHeel			LHip			LKnee			LAnkle			LBigToe			LSmallToe			LHeel			Neck			Head			Nose			RShoulder			RElbow			RWrist			LShoulder			LElbow			LWrist			
		X1	Y1	Z1	X2	Y2	Z2	X3	Y3	Z3	X4	Y4	Z4	X5	Y5	Z5	X6	Y6	Z6	X7	Y7	Z7	X8	Y8	Z8	X9	Y9	Z9	X10	Y10	Z10	X11	Y11	Z11	X12	Y12	Z12	X13	Y13	Z13	X14	Y14	Z14	X15	Y15	Z15	X16	Y16	Z16	X17	Y17	Z17	X18	Y18	Z18	X19	Y19	Z19	X20	Y20	Z20	X21	Y21	Z21	X22	Y22	Z22	
0	0.0	0.1530135313767138	0.911820081414587	-0.10307263888992314	0.04917933338046617	0.9007296871923202	-0.10021780805951087	0.01072488309260031	0.4984471147273473	-0.13548955182253047	-0.02976780903487338	0.09605681966518764	-0.14504252525145708	-0.0755512272512629	0.05044191928274615	0.045447260468364024	-0.11069746558074892	0.048670492246917094	-0.013891076183172646	-0.012443601637312944	0.04533988969130406	-0.1735832302539713	0.26056342773976665	0.8994543025459523	-0.09715826458827384	0.2882631020312845	0.498071260878009	-0.1307907810415428	0.3139985703420611	0.09506345728074533	-0.13625628686098423	0.3523916000723263	0.04880072429395361	0.04984064676750354	0.39165067240456447	0.05046868243632475	-0.007986115255734843	0.29705367457358395	0.04511966200740461	-0.16540056005493214	0.16302363688288174	1.4826902845555603	-0.06734319465120489	0.17195042741856284	1.7084482177378564	-0.02744629052631408	0.15223926836057533	1.5858208356943742	0.0743749993110938	-0.004405046790010331	1.390809917904541	-0.07289965818163224	-0.13395670250229294	1.1689653697113531	-0.15058528876769908	-0.17543330524100034	0.9271244512478207	-0.1047132739375085	0.3260584379915716	1.3897162153936435	-0.08641251966203324	0.4470370838715497	1.1607957401778362	-0.14572181744727722	0.4722405257994575	0.9267886232632306	-0.11200468195579664
1	0.02	0.1505762675593477	0.9002750239410836	-0.10016478232974202	0.04311618696518696	0.8925023311990278	-0.10167026881899519	0.010748832133443123	0.49223487690835793	-0.13575831253180357	-0.027779621174641243	0.09684870514515936	-0.1467983482441031	-0.07871484160335958	0.05498972390477765	0.046570134008599516	-0.11420005481410268	0.05361760619240512	-0.020501798604603994	-0.012536015747832308	0.05158227869332479	-0.18228237775966397	0.2585054514003598	0.8877683508457266	-0.10224392078761321	0.285945659270616	0.4923781180575442	-0.13095951680241566	0.314907805210045	0.1029864772509342	-0.13584860758276054	0.35232265561209053	0.05418228310147903	0.05494716970384893	0.3908669085625812	0.05568820492247724	-0.007141886773994956	0.3054531305844236	0.059505769661194655	-0.17143607930139912	0.16377579768537448	1.4798977585611557	-0.06226605292733116	0.1746038357755726	1.7054113915529228	-0.02390193833454973	0.16686198716853762	1.5922433875578523	0.09446662722276256	-0.004363983192335835	1.3876348783567494	-0.07315561419182026	-0.13959175409778088	1.1685335489172233	-0.14940890962806055	-0.17833016104499466	0.9311870574728794	-0.11057605359449346	0.3253793945939616	1.3862157529598313	-0.08773180602905824	0.4493295368154756	1.1613040056078776	-0.13835425932434403	0.4728977536555392	0.9267294953523392	-0.10653720628204415
2	0.04	0.1496208128736789	0.9002960278853593	-0.09852879568411602	0.042913140389897894	0.8929531110868407	-0.10573091473080393	0.013517615919208062	0.4911243116952081	-0.13407765363271174	-0.026253566175750892	0.09715824490124156	-0.14936062798174635	-0.07632032280987092	0.053735862837100565	0.045886423750314834	-0.11437993893929133	0.05399997011636061	-0.025773569056075786	-0.009712784771789674	0.05201079143763732	-0.18269255713776494	0.2598837970203784	0.8878918071267855	-0.10436709358486275	0.28888146327369135	0.49245490605554393	-0.1308682857250205	0.3175802310948725	0.102836055463999	-0.13093466280637514	0.35314362462036997	0.056883065749111776	0.05594244471102689	0.39473124203235493	0.05667063236695654	-0.002661674442859173	0.30380032035263305	0.05788620452538559	-0.16992729454860805	0.16460568889906413	1.4804564319054716	-0.06420493391372407	0.17663141635943716	1.7063300313272909	-0.02281049758829503	0.16466415677324045	1.5927902870279118	0.10315341388956857	-0.0052543465785652955	1.391464094723591	-0.07474019896062499	-0.13992301102797258	1.1725427828576003	-0.14915952581832206	-0.17868928702423673	0.9326917305467016	-0.10752768944392753	0.3224465847041626	1.3887768855351945	-0.0946964504396452	0.45100369397417345	1.1639842988563924	-0.13882097307657004	0.4716235158765257	0.9273383358388327	-0.10899120723993089
3	0.06	0.14757260660228402	0.9004769760411794	-0.09905835708134168	0.04496224926638395	0.8915644621480732	-0.1032290241230524	0.012340061525431127	0.48940514054376355	-0.136064779235401	-0.025924571371603027	0.09324596632996485	-0.14310081692232018	-0.07644540325604292	0.053152906732475066	0.04462342555121942	-0.11274781200789397	0.053138026398978404	-0.021486543460840005	-0.011000481185810651	0.049539525179911094	-0.18001626864670833	0.2594174749355029	0.8881551830567832	-0.10294986062072413	0.28635221736826166	0.49352271598735875	-0.12911345597121143	0.31665607885782643	0.10746767113112007	-0.13377768642323062	0.3515437440302805	0.054427839332001474	0.04979757188256819	0.39110441251959965	0.057045201812203176	-0.006167230971970366	0.30136983850864324	0.05976850871425965	-0.16997113413051979	0.16401783951790389	1.4811871049058118	-0.0626930364385335	0.1761021434399355	1.707055610647893	-0.02128050643670564	0.16714494181875708	1.5931428217512036	0.10576217397427277	-0.006196272640664405	1.3895131815365735	-0.0738493796815357	-0.1408346907653168	1.1730711488156216	-0.1477476110527668	-0.17849350355700977	0.9327313020110481	-0.103839586726561	0.32328896414181774	1.3880755222514982	-0.08944289379222577	0.449183248816239	1.1643049993767345	-0.13971806548186166	0.4754767003955304	0.9284894163128293	-0.10756437041089795
4	0.08	0.15438020607966554	0.9114609699544001	-0.09819320761371686	0.04864135571667045	0.901736350382424	-0.10059507458110183	0.014082467317616365	0.49828224144362854	-0.13688101565226465	-0.027772681586071882	0.09641268820490029	-0.14379519089007822	-0.0781038384049827	0.05128176147686132	0.04798811459149869	-0.11375336548536832	0.050415917155359494	-0.015039366625848065	-0.012173507145739016	0.04663848186653477	-0.17729130833691772	0.2588876922228265	0.8990426044955874	-0.09018597338608035	0.28798997323229325	0.5003547215197391	-0.13013402697822044	0.3133406281135941	0.09180989508188643	-0.13669051576284758	0.3528404689810241	0.0467313240254985	0.04478009612235499	0.3934136200899874	0.049103951379642824	-0.013906885186189119	0.29608435190655424	0.04170327204323755	-0.1640533145794868	0.1636597536117942	1.4822077209349258	-0.06270962187750953	0.17472078344544872	1.7069980264437643	-0.027772333528343674	0.1535854250101106	1.5880550863819665	0.07869071940939046	-0.0004094606408949965	1.3925264184820154	-0.07497563714510268	-0.14128188621692211	1.173362962260828	-0.150574018707677	-0.1812840347603509	0.9330370873970796	-0.10648473406866064	0.32535226104873716	1.3914298951543027	-0.08002279503426463	0.4497830286254922	1.1635546602631628	-0.1364727811642083	0.4751942338672752	0.9277122396705997	-0.10722226162775927
